<svg xmlns="http://www.w3.org/2000/svg" xmlns:xlink="http://www.w3.org/1999/xlink" version="1.1" x="0px" y="0px" viewBox="0 0 80 100" style="enable-background:new 0 0 80 80;" xml:space="preserve"><path d="M71.3,68.5L55.9,53c8.8-10.2,8.3-25.6-1.4-35.3c-5.1-5.1-11.7-7.6-18.4-7.6s-13.3,2.5-18.4,7.6c-10.2,10.2-10.2,26.6,0,36.8  c5.1,5.1,11.7,7.6,18.4,7.6c6,0,12.1-2.1,16.9-6.3l15.4,15.4c0.4,0.4,0.9,0.6,1.4,0.6s1-0.2,1.4-0.6C72.1,70.5,72.1,69.3,71.3,68.5z   M20.6,51.7c-8.6-8.6-8.6-22.5,0-31.1c4.2-4.2,9.7-6.4,15.6-6.4s11.4,2.3,15.6,6.4c8.6,8.6,8.6,22.5,0,31.1  c-4.2,4.2-9.7,6.4-15.6,6.4S24.7,55.8,20.6,51.7z"/></svg>